<?xml version="1.0" encoding="UTF-8" standalone="no"?>
<!DOCTYPE svg PUBLIC "-//W3C//DTD SVG 1.1//EN"
 "http://www.w3.org/Graphics/SVG/1.1/DTD/svg11.dtd">
<!-- Generated by graphviz version 2.43.0 (0)
 -->
<!-- Title: %3 Pages: 1 -->
<svg width="651pt" height="357pt"
 viewBox="0.00 0.00 651.47 356.93" xmlns="http://www.w3.org/2000/svg" xmlns:xlink="http://www.w3.org/1999/xlink">
<g id="graph0" class="graph" transform="scale(1 1) rotate(0) translate(4 352.93)">
<title>%3</title>
<polygon fill="white" stroke="transparent" points="-4,4 -4,-352.93 647.47,-352.93 647.47,4 -4,4"/>
<!-- Launch Site -->
<g id="node1" class="node">
<title>Launch Site</title>
<ellipse fill="#b2dfee" stroke="#b2dfee" cx="321.73" cy="-303.68" rx="319.72" ry="45.01"/>
<text text-anchor="start" x="286.73" y="-321.48" font-family="Times,serif" font-weight="bold" font-size="14.00">Launch Site</text>
<text text-anchor="start" x="103.73" y="-307.48" font-family="Times,serif" font-size="14.00">You are at the Mars launch site. Your rocket stands nearby, ready for departure.</text>
<text text-anchor="start" x="253.73" y="-293.48" font-family="Times,serif" font-size="14.00">You see: a Martian map </text>
<text text-anchor="start" x="262.73" y="-279.48" font-family="Times,serif" font-size="14.00">Characters: Astronaut</text>
</g>
<!-- Crater -->
<g id="node2" class="node">
<title>Crater</title>
<ellipse fill="#b2dfee" stroke="#b2dfee" cx="321.73" cy="-172.07" rx="321.97" ry="35.21"/>
<text text-anchor="start" x="301.73" y="-182.87" font-family="Times,serif" font-weight="bold" font-size="14.00">Crater</text>
<text text-anchor="start" x="102.23" y="-168.87" font-family="Times,serif" font-size="14.00">You are in a large crater. The rocky Martian landscape stretches out around you.</text>
<text text-anchor="start" x="264.23" y="-154.87" font-family="Times,serif" font-size="14.00">You see: a rusty key </text>
</g>
<!-- Launch Site&#45;&gt;Crater -->
<g id="edge1" class="edge">
<title>Launch Site&#45;&gt;Crater</title>
<path fill="none" stroke="black" d="M301.6,-258.44C298.82,-247.71 297.56,-236.22 299.73,-225.42 300.27,-222.75 300.95,-220.04 301.73,-217.34"/>
<polygon fill="black" stroke="black" points="305.12,-218.25 304.95,-207.66 298.48,-216.04 305.12,-218.25"/>
<text text-anchor="middle" x="311.73" y="-229.22" font-family="Times,serif" font-size="14.00">East</text>
</g>
<!-- Crater&#45;&gt;Launch Site -->
<g id="edge2" class="edge">
<title>Crater&#45;&gt;Launch Site</title>
<path fill="none" stroke="black" d="M323.24,-207.7C323.45,-213.61 323.62,-219.69 323.73,-225.42 323.87,-232.71 323.86,-240.38 323.76,-247.94"/>
<polygon fill="black" stroke="black" points="320.26,-248.09 323.57,-258.15 327.26,-248.22 320.26,-248.09"/>
<text text-anchor="middle" x="337.73" y="-229.22" font-family="Times,serif" font-size="14.00">West</text>
</g>
<!-- Mine -->
<g id="node3" class="node">
<title>Mine</title>
<ellipse fill="#b2dfee" stroke="#b2dfee" cx="321.73" cy="-35.36" rx="292.98" ry="35.21"/>
<text text-anchor="start" x="306.23" y="-46.16" font-family="Times,serif" font-weight="bold" font-size="14.00">Mine</text>
<text text-anchor="start" x="122.73" y="-32.16" font-family="Times,serif" font-size="14.00">You are in a dark, cavernous mine. Strange minerals glitter on the walls.</text>
<text text-anchor="start" x="242.23" y="-18.16" font-family="Times,serif" font-size="14.00">You see: the Healer element </text>
</g>
<!-- Crater&#45;&gt;Mine -->
<g id="edge3" class="edge">
<title>Crater&#45;&gt;Mine</title>
<path fill="none" stroke="black" stroke-dasharray="1,5" d="M235.84,-137.92C229.15,-132.42 223.24,-126.06 218.73,-118.71 211.76,-107.35 211.76,-100.08 218.73,-88.71 221.48,-84.23 224.75,-80.12 228.39,-76.35"/>
<polygon fill="black" stroke="black" points="230.85,-78.85 235.84,-69.51 226.11,-73.69 230.85,-78.85"/>
<text text-anchor="middle" x="311.73" y="-107.51" font-family="Times,serif" font-size="14.00">South</text>
<text text-anchor="middle" x="311.73" y="-92.51" font-family="Times,serif" font-size="14.00">You need a key to enter the mine.</text>
</g>
<!-- Mine&#45;&gt;Crater -->
<g id="edge4" class="edge">
<title>Mine&#45;&gt;Crater</title>
<path fill="none" stroke="black" d="M389.64,-70.04C395.62,-75.5 400.87,-81.7 404.73,-88.71 411.17,-100.39 411.17,-107.04 404.73,-118.71 402.5,-122.76 399.8,-126.55 396.77,-130.07"/>
<polygon fill="black" stroke="black" points="394.12,-127.78 389.64,-137.38 399.13,-132.67 394.12,-127.78"/>
<text text-anchor="middle" x="424.73" y="-100.01" font-family="Times,serif" font-size="14.00">North</text>
</g>
</g>
</svg>
