<?xml version="1.0" encoding="UTF-8" standalone="no"?>
<!DOCTYPE svg PUBLIC "-//W3C//DTD SVG 1.1//EN"
 "http://www.w3.org/Graphics/SVG/1.1/DTD/svg11.dtd">
<!-- Generated by graphviz version 2.43.0 (0)
 -->
<!-- Title: %3 Pages: 1 -->
<svg width="1870pt" height="464pt"
 viewBox="0.00 0.00 1870.23 463.64" xmlns="http://www.w3.org/2000/svg" xmlns:xlink="http://www.w3.org/1999/xlink">
<g id="graph0" class="graph" transform="scale(1 1) rotate(0) translate(4 459.64)">
<title>%3</title>
<polygon fill="white" stroke="transparent" points="-4,4 -4,-459.64 1866.23,-459.64 1866.23,4 -4,4"/>
<!-- Launch Site -->
<g id="node1" class="node">
<title>Launch Site</title>
<ellipse fill="#b2dfee" stroke="#b2dfee" cx="904.93" cy="-410.39" rx="319.72" ry="45.01"/>
<text text-anchor="start" x="869.93" y="-428.19" font-family="Times,serif" font-weight="bold" font-size="14.00">Launch Site</text>
<text text-anchor="start" x="686.93" y="-414.19" font-family="Times,serif" font-size="14.00">You are at the Mars launch site. Your rocket stands nearby, ready for departure.</text>
<text text-anchor="start" x="902.93" y="-400.19" font-family="Times,serif" font-size="14.00"> </text>
<text text-anchor="start" x="845.93" y="-386.19" font-family="Times,serif" font-size="14.00">Characters: Astronaut</text>
</g>
<!-- Crater -->
<g id="node2" class="node">
<title>Crater</title>
<ellipse fill="#b2dfee" stroke="#b2dfee" cx="904.93" cy="-278.78" rx="321.97" ry="35.21"/>
<text text-anchor="start" x="884.93" y="-289.58" font-family="Times,serif" font-weight="bold" font-size="14.00">Crater</text>
<text text-anchor="start" x="685.43" y="-275.58" font-family="Times,serif" font-size="14.00">You are in a large crater. The rocky Martian landscape stretches out around you.</text>
<text text-anchor="start" x="902.93" y="-261.58" font-family="Times,serif" font-size="14.00"> </text>
</g>
<!-- Launch Site&#45;&gt;Crater -->
<g id="edge1" class="edge">
<title>Launch Site&#45;&gt;Crater</title>
<path fill="none" stroke="black" d="M884.8,-365.15C882.01,-354.42 880.75,-342.93 882.93,-332.13 883.46,-329.46 884.14,-326.76 884.93,-324.06"/>
<polygon fill="black" stroke="black" points="888.31,-324.96 888.15,-314.37 881.67,-322.75 888.31,-324.96"/>
<text text-anchor="middle" x="894.93" y="-335.93" font-family="Times,serif" font-size="14.00">East</text>
</g>
<!-- Crater&#45;&gt;Launch Site -->
<g id="edge2" class="edge">
<title>Crater&#45;&gt;Launch Site</title>
<path fill="none" stroke="black" d="M906.44,-314.41C906.64,-320.32 906.82,-326.4 906.93,-332.13 907.07,-339.42 907.06,-347.09 906.95,-354.66"/>
<polygon fill="black" stroke="black" points="903.45,-354.8 906.76,-364.86 910.45,-354.93 903.45,-354.8"/>
<text text-anchor="middle" x="921.93" y="-335.93" font-family="Times,serif" font-size="14.00">West</text>
</g>
<!-- Olympus Mons Base Camp -->
<g id="node3" class="node">
<title>Olympus Mons Base Camp</title>
<ellipse fill="#b2dfee" stroke="#b2dfee" cx="982.93" cy="-35.36" rx="302.78" ry="35.21"/>
<text text-anchor="start" x="901.93" y="-46.16" font-family="Times,serif" font-weight="bold" font-size="14.00">Olympus Mons Base Camp</text>
<text text-anchor="start" x="776.93" y="-32.16" font-family="Times,serif" font-size="14.00">A small outpost at the base of the massive volcano. The peak looms above.</text>
<text text-anchor="start" x="980.93" y="-18.16" font-family="Times,serif" font-size="14.00"> </text>
</g>
<!-- Crater&#45;&gt;Olympus Mons Base Camp -->
<g id="edge3" class="edge">
<title>Crater&#45;&gt;Olympus Mons Base Camp</title>
<path fill="none" stroke="black" d="M913.15,-243.32C921.06,-211.45 933.85,-162.94 947.93,-121.71 952.59,-108.05 958.31,-93.43 963.76,-80.22"/>
<polygon fill="black" stroke="black" points="967.04,-81.46 967.66,-70.88 960.58,-78.76 967.04,-81.46"/>
<text text-anchor="middle" x="963.93" y="-153.37" font-family="Times,serif" font-size="14.00">North</text>
</g>
<!-- Abandoned Research Station -->
<g id="node4" class="node">
<title>Abandoned Research Station</title>
<ellipse fill="#b2dfee" stroke="#b2dfee" cx="537.93" cy="-157.07" rx="285.84" ry="35.21"/>
<text text-anchor="start" x="453.43" y="-167.87" font-family="Times,serif" font-weight="bold" font-size="14.00">Abandoned Research Station</text>
<text text-anchor="start" x="343.93" y="-153.87" font-family="Times,serif" font-size="14.00">A derelict facility with potential resources. Dust covers old equipment.</text>
<text text-anchor="start" x="535.93" y="-139.87" font-family="Times,serif" font-size="14.00"> </text>
</g>
<!-- Crater&#45;&gt;Abandoned Research Station -->
<g id="edge4" class="edge">
<title>Crater&#45;&gt;Abandoned Research Station</title>
<path fill="none" stroke="black" d="M804.64,-245.07C755.59,-229.07 696.48,-209.79 646.39,-193.44"/>
<polygon fill="black" stroke="black" points="647.41,-190.1 636.82,-190.32 645.24,-196.75 647.41,-190.1"/>
<text text-anchor="middle" x="755.93" y="-214.22" font-family="Times,serif" font-size="14.00">East</text>
</g>
<!-- Valles Marineris Canyon -->
<g id="node5" class="node">
<title>Valles Marineris Canyon</title>
<ellipse fill="#b2dfee" stroke="#b2dfee" cx="1289.93" cy="-157.07" rx="300.54" ry="35.21"/>
<text text-anchor="start" x="1216.93" y="-167.87" font-family="Times,serif" font-weight="bold" font-size="14.00">Valles Marineris Canyon</text>
<text text-anchor="start" x="1085.43" y="-153.87" font-family="Times,serif" font-size="14.00">A deep, winding canyon system. The walls tower above you on both sides.</text>
<text text-anchor="start" x="1287.93" y="-139.87" font-family="Times,serif" font-size="14.00"> </text>
</g>
<!-- Crater&#45;&gt;Valles Marineris Canyon -->
<g id="edge5" class="edge">
<title>Crater&#45;&gt;Valles Marineris Canyon</title>
<path fill="none" stroke="black" d="M1009.37,-245.3C1061.04,-229.23 1123.51,-209.81 1176.37,-193.38"/>
<polygon fill="black" stroke="black" points="1177.61,-196.65 1186.12,-190.34 1175.53,-189.97 1177.61,-196.65"/>
<text text-anchor="middle" x="1135.93" y="-214.22" font-family="Times,serif" font-size="14.00">South</text>
</g>
<!-- Olympus Mons Base Camp&#45;&gt;Crater -->
<g id="edge6" class="edge">
<title>Olympus Mons Base Camp&#45;&gt;Crater</title>
<path fill="none" stroke="black" d="M932.8,-70.26C916.62,-84.11 900.62,-101.64 891.93,-121.71 876.62,-157.06 882.23,-201.08 890.3,-233.34"/>
<polygon fill="black" stroke="black" points="887.02,-234.63 892.99,-243.38 893.79,-232.82 887.02,-234.63"/>
<text text-anchor="middle" x="907.93" y="-153.37" font-family="Times,serif" font-size="14.00">South</text>
</g>
<!-- Olympus Mons Base Camp&#45;&gt;Valles Marineris Canyon -->
<g id="edge7" class="edge">
<title>Olympus Mons Base Camp&#45;&gt;Valles Marineris Canyon</title>
<path fill="none" stroke="black" d="M1067.62,-69.38C1107.38,-84.88 1154.91,-103.42 1195.8,-119.36"/>
<polygon fill="black" stroke="black" points="1194.64,-122.67 1205.22,-123.04 1197.18,-116.14 1194.64,-122.67"/>
<text text-anchor="middle" x="1165.93" y="-92.51" font-family="Times,serif" font-size="14.00">East</text>
</g>
<!-- Abandoned Research Station&#45;&gt;Crater -->
<g id="edge8" class="edge">
<title>Abandoned Research Station&#45;&gt;Crater</title>
<path fill="none" stroke="black" d="M595.03,-191.75C617.21,-203.73 643.19,-216.46 667.93,-225.42 688.89,-233.02 711.31,-239.71 733.7,-245.55"/>
<polygon fill="black" stroke="black" points="733.07,-249.01 743.63,-248.09 734.81,-242.22 733.07,-249.01"/>
<text text-anchor="middle" x="681.93" y="-214.22" font-family="Times,serif" font-size="14.00">West</text>
</g>
<!-- Ancient Martian Ruins -->
<g id="node6" class="node">
<title>Ancient Martian Ruins</title>
<ellipse fill="#b2dfee" stroke="#b2dfee" cx="330.93" cy="-35.36" rx="330.85" ry="35.21"/>
<text text-anchor="start" x="262.93" y="-46.16" font-family="Times,serif" font-weight="bold" font-size="14.00">Ancient Martian Ruins</text>
<text text-anchor="start" x="104.93" y="-32.16" font-family="Times,serif" font-size="14.00">Mysterious structures hinting at past civilization. Strange symbols cover the walls.</text>
<text text-anchor="start" x="243.43" y="-18.16" font-family="Times,serif" font-size="14.00">You see: a Phobos Shuttle Pass </text>
</g>
<!-- Abandoned Research Station&#45;&gt;Ancient Martian Ruins -->
<g id="edge9" class="edge">
<title>Abandoned Research Station&#45;&gt;Ancient Martian Ruins</title>
<path fill="none" stroke="black" d="M479.71,-122.4C454.36,-107.74 424.49,-90.46 398.19,-75.25"/>
<polygon fill="black" stroke="black" points="399.83,-72.16 389.42,-70.18 396.32,-78.22 399.83,-72.16"/>
<text text-anchor="middle" x="462.93" y="-92.51" font-family="Times,serif" font-size="14.00">South</text>
</g>
<!-- Valles Marineris Canyon&#45;&gt;Crater -->
<g id="edge12" class="edge">
<title>Valles Marineris Canyon&#45;&gt;Crater</title>
<path fill="none" stroke="black" d="M1231.01,-191.84C1208.14,-203.83 1181.37,-216.54 1155.93,-225.42 1133.21,-233.35 1108.89,-240.26 1084.67,-246.24"/>
<polygon fill="black" stroke="black" points="1083.57,-242.9 1074.67,-248.65 1085.21,-249.71 1083.57,-242.9"/>
<text text-anchor="middle" x="1205.93" y="-214.22" font-family="Times,serif" font-size="14.00">North</text>
</g>
<!-- Valles Marineris Canyon&#45;&gt;Olympus Mons Base Camp -->
<g id="edge10" class="edge">
<title>Valles Marineris Canyon&#45;&gt;Olympus Mons Base Camp</title>
<path fill="none" stroke="black" d="M1147.42,-125.91C1126.42,-119.63 1105.33,-112.26 1085.93,-103.71 1069.02,-96.26 1051.78,-86.15 1036.36,-76.04"/>
<polygon fill="black" stroke="black" points="1038.25,-73.09 1028,-70.44 1034.36,-78.91 1038.25,-73.09"/>
<text text-anchor="middle" x="1099.93" y="-92.51" font-family="Times,serif" font-size="14.00">West</text>
</g>
<!-- Underground Ice Caverns -->
<g id="node7" class="node">
<title>Underground Ice Caverns</title>
<ellipse fill="#b2dfee" stroke="#b2dfee" cx="1582.93" cy="-35.36" rx="279.11" ry="35.21"/>
<text text-anchor="start" x="1506.93" y="-46.16" font-family="Times,serif" font-weight="bold" font-size="14.00">Underground Ice Caverns</text>
<text text-anchor="start" x="1393.43" y="-32.16" font-family="Times,serif" font-size="14.00">A network of icy caves beneath the surface. The air is frigid and still.</text>
<text text-anchor="start" x="1580.93" y="-18.16" font-family="Times,serif" font-size="14.00"> </text>
</g>
<!-- Valles Marineris Canyon&#45;&gt;Underground Ice Caverns -->
<g id="edge11" class="edge">
<title>Valles Marineris Canyon&#45;&gt;Underground Ice Caverns</title>
<path fill="none" stroke="black" d="M1371.15,-122.88C1408.86,-107.47 1453.81,-89.11 1492.59,-73.27"/>
<polygon fill="black" stroke="black" points="1494.37,-76.32 1502.3,-69.3 1491.72,-69.84 1494.37,-76.32"/>
<text text-anchor="middle" x="1470.93" y="-92.51" font-family="Times,serif" font-size="14.00">Down</text>
</g>
<!-- Ancient Martian Ruins&#45;&gt;Abandoned Research Station -->
<g id="edge13" class="edge">
<title>Ancient Martian Ruins&#45;&gt;Abandoned Research Station</title>
<path fill="none" stroke="black" d="M353.76,-70.92C362.92,-82.64 374.3,-94.97 386.93,-103.71 395.75,-109.82 405.35,-115.27 415.29,-120.13"/>
<polygon fill="black" stroke="black" points="413.97,-123.38 424.51,-124.44 416.93,-117.04 413.97,-123.38"/>
<text text-anchor="middle" x="402.93" y="-92.51" font-family="Times,serif" font-size="14.00">North</text>
</g>
<!-- Underground Ice Caverns&#45;&gt;Valles Marineris Canyon -->
<g id="edge14" class="edge">
<title>Underground Ice Caverns&#45;&gt;Valles Marineris Canyon</title>
<path fill="none" stroke="black" d="M1543.84,-70.43C1528.5,-82.38 1510.2,-94.99 1491.93,-103.71 1476.76,-110.95 1460.45,-117.29 1443.92,-122.81"/>
<polygon fill="black" stroke="black" points="1442.6,-119.56 1434.17,-125.97 1444.76,-126.22 1442.6,-119.56"/>
<text text-anchor="middle" x="1524.43" y="-92.51" font-family="Times,serif" font-size="14.00">Up</text>
</g>
</g>
</svg>
